<svg width="69" height="17" viewBox="0 0 69 17" fill="none" xmlns="http://www.w3.org/2000/svg">
<path d="M69.0001 8.43134L18.3713 9.0827V11.0831C18.3713 11.0988 18.368 11.1137 18.3631 11.1285C18.1954 11.5774 17.975 12.1056 17.7099 12.6057C17.6463 12.7255 17.4655 12.6793 17.4655 12.5445V9.09427L15.1254 9.12403C15.2434 8.88432 15.3095 8.73801 15.3186 8.71734L15.4697 8.37926L15.3186 8.04201C15.3112 8.02547 15.2624 7.91719 15.1757 7.73947L17.4655 7.7684V5.97136C17.4655 5.96061 17.4671 5.94987 17.4704 5.93995C17.6248 5.48201 17.8668 4.82651 18.1822 4.18837C18.2293 4.09497 18.3713 4.12886 18.3713 4.23384V7.77997L69.0001 8.43134Z" fill="#1A1743"/>
<path d="M1.64947 3.54033C0.873288 4.50415 0.324178 5.65809 0.0830651 6.91949C-0.000333575 6.30945 -0.0383171 5.55063 0.0525131 4.68021C0.227568 3.00717 1.13752 3.2568 1.64947 3.54033Z" fill="#1A1743"/>
<path d="M1.64947 13.2182C1.13752 13.5017 0.227568 13.7513 0.0525131 12.0783C-0.0383171 11.2079 -0.000333575 10.4499 0.0830651 9.83984C0.324178 11.1012 0.873288 12.2544 1.64947 13.2182Z" fill="#1A1743"/>
<path d="M14.5631 8.37759C14.5441 8.35857 14.3864 8.20069 14.113 7.96428C13.1189 7.10627 10.5946 5.21665 7.63767 5.21665C4.16052 5.21665 1.28203 6.3863 0.785767 7.91055C1.02605 4.31565 4.01602 1.47461 7.66739 1.47461C10.754 1.47461 13.3666 6.00688 14.2468 7.72705C14.445 8.1139 14.5556 8.35857 14.5631 8.37759Z" fill="#922D50"/>
<path d="M14.5639 8.38098C14.5548 8.40165 14.4252 8.68931 14.1931 9.1365C13.2634 10.9286 10.6929 15.284 7.66739 15.284C4.01602 15.284 1.02771 12.4446 0.785767 8.84967C1.28286 10.3739 4.16135 11.5427 7.63767 11.5427C10.5946 11.5427 13.1189 9.6523 14.113 8.79428C14.3905 8.55457 14.549 8.39586 14.5639 8.38098Z" fill="#922D50"/>
<path d="M17.0881 14.8061C16.9815 14.9342 16.9072 15.0772 16.9072 15.2277C16.9072 15.7856 17.3597 16.2394 17.9179 16.2394C18.4761 16.2394 18.9278 15.7865 18.9278 15.2277C18.9278 15.0789 18.8559 14.9375 18.7503 14.8102C18.5149 14.5259 18.3704 14.1779 18.3704 13.8084V13.157C18.3704 13.0182 18.1813 12.9768 18.1227 13.1025C17.7197 13.9671 17.3936 14.454 17.1483 14.7276C17.1293 14.754 17.1087 14.7805 17.0872 14.8061H17.0881Z" fill="#1A1743"/>
<path d="M16.9072 1.53081C16.9072 1.68125 16.9807 1.82425 17.0881 1.95238C17.325 2.2359 17.4654 2.58721 17.4654 2.9567V3.94036C17.4654 4.04865 17.6141 4.07923 17.657 3.97921C18.0137 3.14103 18.3192 2.58307 18.5702 2.2111C18.5702 2.2111 18.5702 2.21028 18.5711 2.20945C18.6206 2.11935 18.6809 2.03256 18.7478 1.95238C18.8551 1.82425 18.9278 1.68125 18.9278 1.53081C18.9278 0.972022 18.4753 0.519043 17.9179 0.519043C17.3606 0.519043 16.9072 0.972022 16.9072 1.53081Z" fill="#1A1743"/>
</svg>
