<svg width="104" height="24" viewBox="0 0 104 24" fill="none" xmlns="http://www.w3.org/2000/svg">
<path d="M103.341 11.8502L27.5147 12.8258V15.8217C27.5147 15.8453 27.5097 15.8675 27.5023 15.8898C27.2512 16.5621 26.921 17.3531 26.5241 18.1021C26.4288 18.2817 26.158 18.2123 26.158 18.0105L26.158 12.8431L22.6532 12.8877C22.83 12.5286 22.929 12.3095 22.9426 12.2786L23.1689 11.7722L22.9426 11.2671C22.9315 11.2423 22.8585 11.0802 22.7286 10.814L26.158 10.8573V8.16589C26.158 8.1498 26.1605 8.1337 26.1654 8.11885C26.3967 7.43299 26.759 6.45125 27.2314 5.49551C27.3019 5.35561 27.5147 5.40637 27.5147 5.5636V10.8747L103.341 11.8502Z" fill="#1A1743"/>
<path d="M2.47042 4.52492C1.30792 5.96844 0.485522 7.6967 0.124407 9.5859C-0.000499596 8.67225 -0.0573876 7.53576 0.078649 6.23214C0.340829 3.72641 1.70367 4.10029 2.47042 4.52492Z" fill="#1A1743"/>
<path d="M2.47042 19.0195C1.70367 19.4441 0.340829 19.818 0.078649 17.3122C-0.0573876 16.0086 -0.000499596 14.8734 0.124407 13.9597C0.485522 15.8489 1.30792 17.5759 2.47042 19.0195Z" fill="#1A1743"/>
<path d="M21.8112 11.7698C21.7827 11.7413 21.5465 11.5048 21.1372 11.1508C19.6482 9.8657 15.8676 7.03561 11.439 7.03561C6.23126 7.03561 1.92013 8.78739 1.17688 11.0703C1.53676 5.68618 6.01483 1.43115 11.4835 1.43115C16.1063 1.43115 20.0192 8.21915 21.3375 10.7954C21.6343 11.3748 21.8 11.7413 21.8112 11.7698Z" fill="#922D50"/>
<path d="M21.8124 11.7747C21.7988 11.8056 21.6046 12.2364 21.2571 12.9062C19.8646 15.5902 16.0148 22.1133 11.4835 22.1133C6.01483 22.1133 1.53923 17.8607 1.17688 12.4766C1.92137 14.7595 6.23249 16.51 11.439 16.51C15.8676 16.51 19.6482 13.6787 21.1372 12.3937C21.5527 12.0346 21.7901 11.7969 21.8124 11.7747Z" fill="#922D50"/>
<path d="M25.5929 21.3977C25.4333 21.5896 25.322 21.8038 25.322 22.0291C25.322 22.8647 25.9997 23.5444 26.8357 23.5444C27.6717 23.5444 28.3482 22.866 28.3482 22.0291C28.3482 21.8062 28.2406 21.5945 28.0823 21.4039C27.7299 20.978 27.5134 20.4568 27.5134 19.9034V18.9279C27.5134 18.7199 27.2302 18.658 27.1424 18.8462C26.5389 20.1411 26.0504 20.8703 25.6831 21.2801C25.6547 21.3197 25.6238 21.3593 25.5916 21.3977H25.5929Z" fill="#1A1743"/>
<path d="M25.322 1.51532C25.322 1.74064 25.4321 1.95481 25.5929 2.1467C25.9478 2.57134 26.158 3.09749 26.158 3.65088V5.12411C26.158 5.28629 26.3806 5.3321 26.4449 5.1823C26.9792 3.92696 27.4368 3.0913 27.8127 2.5342C27.8127 2.5342 27.8127 2.53296 27.814 2.53173C27.8882 2.39678 27.9784 2.26679 28.0786 2.1467C28.2394 1.95481 28.3482 1.74064 28.3482 1.51532C28.3482 0.678428 27.6705 0 26.8357 0C26.001 0 25.322 0.678428 25.322 1.51532Z" fill="#1A1743"/>
</svg>
