<svg width="104" height="24" viewBox="0 0 104 24" fill="none" xmlns="http://www.w3.org/2000/svg">
<path d="M-1.46027e-06 11.6942L75.8268 10.7187L75.8268 7.7227C75.8268 7.69918 75.8317 7.6769 75.8391 7.65461C76.0902 6.98237 76.4204 6.19129 76.8174 5.44229C76.9126 5.26278 77.1834 5.33211 77.1834 5.5339L77.1834 10.7013L80.6882 10.6568C80.5114 11.0158 80.4124 11.2349 80.3988 11.2659L80.1725 11.7722L80.3988 12.2773C80.41 12.3021 80.4829 12.4643 80.6128 12.7304L77.1834 12.6871L77.1834 15.3785C77.1834 15.3946 77.181 15.4107 77.176 15.4256C76.9448 16.1114 76.5824 17.0932 76.11 18.0489C76.0395 18.1888 75.8268 18.1381 75.8268 17.9808L75.8268 12.6698L-1.46027e-06 11.6942Z" fill="#1A1743"/>
<path d="M100.871 19.0195C102.034 17.576 102.856 15.8477 103.217 13.9585C103.342 14.8722 103.399 16.0087 103.263 17.3123C103.001 19.818 101.638 19.4441 100.871 19.0195Z" fill="#1A1743"/>
<path d="M100.871 4.52498C101.638 4.10034 103.001 3.72646 103.263 6.23219C103.399 7.53581 103.342 8.67107 103.217 9.58472C102.856 7.69552 102.034 5.9685 100.871 4.52498Z" fill="#1A1743"/>
<path d="M81.5303 11.7747C81.5587 11.8032 81.7949 12.0396 82.2043 12.3937C83.6933 13.6787 87.4738 16.5088 91.9024 16.5088C97.1102 16.5088 101.421 14.757 102.165 12.4742C101.805 17.8582 97.3266 22.1133 91.8579 22.1133C87.2352 22.1133 83.3222 15.3253 82.0039 12.749C81.7071 12.1696 81.5414 11.8032 81.5303 11.7747Z" fill="#922D50"/>
<path d="M81.529 11.7698C81.5426 11.7388 81.7368 11.308 82.0843 10.6382C83.4768 7.95424 87.3267 1.43117 91.8579 1.43117C97.3266 1.43117 101.802 5.68373 102.165 11.0678C101.42 8.78494 97.1089 7.0344 91.9024 7.0344C87.4738 7.0344 83.6933 9.86572 82.2043 11.1508C81.7887 11.5098 81.5513 11.7475 81.529 11.7698Z" fill="#922D50"/>
<path d="M77.7486 2.14674C77.9081 1.95485 78.0194 1.74068 78.0194 1.51536C78.0194 0.679707 77.3417 3.77936e-05 76.5057 3.78667e-05C75.6697 3.79398e-05 74.9932 0.678469 74.9932 1.51536C74.9932 1.7382 75.1008 1.9499 75.2591 2.14055C75.6116 2.56643 75.828 3.08763 75.828 3.64102L75.828 4.61657C75.828 4.82456 76.1112 4.88646 76.199 4.69828C76.8025 3.40332 77.291 2.67414 77.6583 2.26436C77.6867 2.22474 77.7177 2.18512 77.7498 2.14674L77.7486 2.14674Z" fill="#1A1743"/>
<path d="M78.0194 22.0291C78.0194 21.8038 77.9093 21.5896 77.7486 21.3977C77.3936 20.9731 77.1834 20.4469 77.1834 19.8936L77.1834 18.4203C77.1834 18.2581 76.9608 18.2123 76.8965 18.3621C76.3622 19.6175 75.9047 20.4531 75.5287 21.0102C75.5287 21.0102 75.5287 21.0115 75.5275 21.0127C75.4533 21.1477 75.363 21.2776 75.2628 21.3977C75.102 21.5896 74.9932 21.8038 74.9932 22.0291C74.9932 22.866 75.6709 23.5444 76.5057 23.5444C77.3405 23.5444 78.0194 22.866 78.0194 22.0291Z" fill="#1A1743"/>
</svg>
