<svg width="69" height="17" viewBox="0 0 69 17" fill="none" xmlns="http://www.w3.org/2000/svg">
<path d="M69.0001 8.25275L18.3713 8.90411V10.9045C18.3713 10.9202 18.368 10.9351 18.3631 10.95C18.1954 11.3988 17.975 11.927 17.7099 12.4271C17.6463 12.547 17.4655 12.5007 17.4655 12.3659V8.91568L15.1254 8.94544C15.2434 8.70573 15.3095 8.55942 15.3186 8.53875L15.4697 8.20067L15.3186 7.86342C15.3112 7.84688 15.2624 7.7386 15.1757 7.56088L17.4655 7.58981V5.79277C17.4655 5.78202 17.4671 5.77128 17.4704 5.76136C17.6248 5.30342 17.8668 4.64792 18.1822 4.00978C18.2293 3.91638 18.3713 3.95027 18.3713 4.05525V7.60138L69.0001 8.25275Z" fill="white"/>
<path d="M1.64947 3.36174C0.873288 4.32556 0.324178 5.4795 0.0830651 6.7409C-0.000333575 6.13086 -0.0383171 5.37204 0.0525131 4.50163C0.227568 2.82858 1.13752 3.07821 1.64947 3.36174Z" fill="white"/>
<path d="M1.64947 13.0396C1.13752 13.3231 0.227568 13.5727 0.0525131 11.8997C-0.0383171 11.0293 -0.000333575 10.2713 0.0830651 9.66125C0.324178 10.9227 0.873288 12.0758 1.64947 13.0396Z" fill="white"/>
<path d="M14.5631 8.199C14.5441 8.17999 14.3864 8.0221 14.113 7.78569C13.1189 6.92768 10.5946 5.03806 7.63767 5.03806C4.16052 5.03806 1.28203 6.20771 0.785767 7.73197C1.02605 4.13706 4.01602 1.29602 7.66739 1.29602C10.754 1.29602 13.3666 5.82829 14.2468 7.54846C14.445 7.93531 14.5556 8.17999 14.5631 8.199Z" fill="#1A1743"/>
<path d="M14.5639 8.20239C14.5548 8.22306 14.4252 8.51072 14.1931 8.95791C13.2634 10.75 10.6929 15.1054 7.66739 15.1054C4.01602 15.1054 1.02771 12.266 0.785767 8.67108C1.28286 10.1953 4.16135 11.3642 7.63767 11.3642C10.5946 11.3642 13.1189 9.47371 14.113 8.6157C14.3905 8.37598 14.549 8.21727 14.5639 8.20239Z" fill="#1A1743"/>
<path d="M17.0881 14.6275C16.9815 14.7556 16.9072 14.8986 16.9072 15.0491C16.9072 15.607 17.3597 16.0608 17.9179 16.0608C18.4761 16.0608 18.9278 15.6079 18.9278 15.0491C18.9278 14.9003 18.8559 14.7589 18.7503 14.6316C18.5149 14.3473 18.3704 13.9993 18.3704 13.6298V12.9784C18.3704 12.8396 18.1813 12.7982 18.1227 12.9239C17.7197 13.7885 17.3936 14.2754 17.1483 14.549C17.1293 14.5754 17.1087 14.6019 17.0872 14.6275H17.0881Z" fill="white"/>
<path d="M16.9072 1.35222C16.9072 1.50266 16.9807 1.64566 17.0881 1.77379C17.325 2.05731 17.4654 2.40862 17.4654 2.77811V3.76177C17.4654 3.87006 17.6141 3.90064 17.657 3.80062C18.0137 2.96244 18.3192 2.40449 18.5702 2.03251C18.5702 2.03251 18.5702 2.03169 18.5711 2.03086C18.6206 1.94076 18.6809 1.85397 18.7478 1.77379C18.8551 1.64566 18.9278 1.50266 18.9278 1.35222C18.9278 0.793433 18.4753 0.340454 17.9179 0.340454C17.3606 0.340454 16.9072 0.793433 16.9072 1.35222Z" fill="white"/>
</svg>
