<svg width="296" height="374" viewBox="0 0 296 374" fill="none" xmlns="http://www.w3.org/2000/svg">
<path d="M33.6478 374L30.8408 155.824L22.2205 155.824C22.1528 155.824 22.0887 155.809 22.0246 155.788C20.0904 155.066 17.8142 154.116 15.6591 152.973C15.1426 152.699 15.342 151.92 15.9227 151.92L30.791 151.92L30.6627 141.836C31.6957 142.345 32.3262 142.629 32.4153 142.668L33.8722 143.32L35.3255 142.668C35.3968 142.636 35.8634 142.426 36.6293 142.053L36.5046 151.92L44.2486 151.92C44.2949 151.92 44.3413 151.927 44.384 151.941C46.3574 152.607 49.1822 153.649 51.9321 155.009C52.3346 155.212 52.1886 155.824 51.7362 155.824L36.4547 155.824L33.6478 374Z" fill="white"/>
<path d="M54.7248 83.7637C50.5714 80.4188 45.5987 78.0525 40.1629 77.0135C42.7917 76.6541 46.0618 76.4904 49.8127 76.8818C57.0224 77.6362 55.9466 81.5575 54.7248 83.7637Z" fill="white"/>
<path d="M13.0196 83.7637C11.7977 81.5575 10.722 77.6362 17.9317 76.8818C21.6826 76.4904 24.9491 76.6541 27.5779 77.0135C22.1421 78.0525 17.173 80.4188 13.0196 83.7637Z" fill="white"/>
<path d="M33.8793 139.413C33.9612 139.331 34.6416 138.651 35.6604 137.473C39.3579 133.189 47.5009 122.311 47.5009 109.569C47.5009 94.5846 42.4605 82.1802 35.8919 80.0416C51.3836 81.0771 63.6266 93.9619 63.6266 109.697C63.6266 122.998 44.0955 134.257 36.6827 138.05C35.0156 138.904 33.9612 139.381 33.8793 139.413Z" fill="#D4E79E"/>
<path d="M33.8651 139.416C33.776 139.377 32.5364 138.818 30.6093 137.818C22.8866 133.812 4.11781 122.735 4.11781 109.697C4.11781 93.9619 16.3537 81.0842 31.8453 80.0416C25.2768 82.1837 20.24 94.5881 20.24 109.569C20.24 122.311 28.3865 133.189 32.084 137.473C33.117 138.669 33.8009 139.352 33.8651 139.416Z" fill="#D4E79E"/>
<path d="M6.17672 150.294C5.62459 149.835 5.00835 149.515 4.36004 149.515C1.95561 149.515 3.72946e-06 151.465 3.62432e-06 153.87C3.51917e-06 156.276 1.95205 158.222 4.36004 158.222C5.00123 158.222 5.61034 157.912 6.15891 157.457C7.38428 156.443 8.88393 155.82 10.4762 155.82L13.2831 155.82C13.8816 155.82 14.0597 155.005 13.5182 154.753C9.79227 153.016 7.69418 151.611 6.51512 150.554C6.40113 150.472 6.28714 150.383 6.17672 150.29L6.17672 150.294Z" fill="white"/>
<path d="M63.3844 149.515C62.736 149.515 62.1198 149.831 61.5677 150.294C60.3459 151.315 58.832 151.92 57.2397 151.92L53.0008 151.92C52.5341 151.92 52.4023 152.561 52.8334 152.746C56.4453 154.283 58.8498 155.599 60.4527 156.681C60.4527 156.681 60.4563 156.681 60.4599 156.685C60.8481 156.898 61.2221 157.158 61.5677 157.446C62.1198 157.909 62.736 158.222 63.3844 158.222C65.7923 158.222 67.7444 156.272 67.7444 153.87C67.7444 151.468 65.7923 149.515 63.3844 149.515Z" fill="white"/>
<path d="M149.807 19.4514C149.807 19.4514 147.9 12.6727 150.921 7.39009C153.942 2.10747 158.343 -1.05569 160.749 0.322848C163.154 1.70139 162.656 7.10156 159.635 12.3842C156.614 17.6668 149.807 19.4514 149.807 19.4514Z" fill="#D4E79E"/>
<g clip-path="url(#clip0_8_311)">
<path d="M128.206 88.1948C127.076 84.5221 125.96 81.009 124.859 77.6483C123.754 74.2912 122.735 71.3311 121.803 68.768C121.36 67.4634 120.305 66.5098 118.639 65.9036C116.972 65.301 115.083 64.9961 112.973 64.9961C111.501 64.9961 110.018 65.1769 108.521 65.5385C107.024 65.9001 105.933 66.3007 105.245 66.7332C104.706 68.0377 104.007 69.8492 103.147 72.1677C102.287 74.4862 101.355 77.0244 100.35 79.7789C99.3425 82.5334 98.3634 85.3233 97.406 88.1523C96.4485 90.9777 95.5667 93.601 94.7568 96.0151C93.9469 98.4329 93.3206 100.436 92.8815 102.031C92.6368 102.854 92.428 103.577 92.2552 104.204C92.0824 104.832 91.9961 105.438 91.9961 106.016C91.9961 107.42 92.536 108.479 93.6158 109.206C94.6956 109.929 96.265 110.295 98.3274 110.295C99.2597 110.295 100.07 110.209 100.757 110.039C101.445 109.869 102.056 109.713 102.596 109.568C102.841 108.795 103.086 107.973 103.331 107.104C103.575 106.235 103.845 105.317 104.14 104.35C104.436 103.385 104.716 102.393 104.986 101.379C105.13 100.833 105.281 100.301 105.433 99.7835H120.233L122.022 105.945C122.465 107.395 123.102 108.483 123.937 109.206C124.772 109.929 126.194 110.295 128.206 110.295C129.628 110.295 130.855 110.089 131.885 109.678C132.914 109.266 133.699 108.77 134.239 108.192C133.454 105.438 132.533 102.332 131.478 98.8795C130.423 95.4267 129.333 91.8604 128.202 88.1877L128.206 88.1948ZM109.147 85.8409C109.835 83.7883 110.508 81.8173 111.17 79.9349C111.832 78.0489 112.408 76.3367 112.898 74.7875H113.341C113.783 76.1913 114.273 77.7972 114.813 79.6087C115.353 81.4202 115.939 83.3416 116.58 85.3694C117.174 87.2625 117.746 89.2229 118.301 91.24H107.391C107.956 89.4497 108.539 87.6489 109.147 85.8409Z" fill="white"/>
<path d="M169.2 77.0318C167.922 76.2093 166.148 75.4507 163.866 74.7488C161.584 74.0504 159.118 73.6995 156.469 73.6995C152.79 73.6995 149.551 74.3659 146.754 75.6918C143.957 77.0212 141.787 78.978 140.243 81.5623C138.699 84.1467 137.925 87.3514 137.925 91.1658C137.925 95.2745 138.673 98.5962 140.171 101.131C141.668 103.669 143.655 105.481 146.131 106.565C148.608 107.654 151.293 108.196 154.191 108.196C156.3 108.196 158.092 107.98 159.564 107.544C160.4 107.296 161.152 107.016 161.846 106.707V109.21C161.846 111.433 161.037 113.039 159.417 114.031C157.797 115.02 155.616 115.517 152.866 115.517C150.854 115.517 148.939 115.237 147.125 114.684C145.311 114.127 143.741 113.464 142.417 112.691C141.827 113.078 141.323 113.67 140.909 114.467C140.491 115.265 140.282 116.169 140.282 117.186C140.282 119.118 141.117 120.618 142.784 121.682C143.813 122.359 145.322 122.915 147.308 123.348C149.295 123.784 151.563 124 154.115 124C157.498 124 160.554 123.493 163.275 122.479C166 121.465 168.156 119.895 169.751 117.768C171.345 115.641 172.141 112.886 172.141 109.504V82.1047C172.141 80.8959 171.871 79.8926 171.331 79.095C170.791 78.2974 170.078 77.6096 169.196 77.0282L169.2 77.0318ZM156.174 100.082C154.065 100.082 152.312 99.44 150.911 98.1602C149.511 96.8804 148.813 94.5478 148.813 91.1658C148.813 88.0746 149.562 85.8022 151.059 84.3523C152.556 82.9024 154.482 82.1792 156.836 82.1792C157.963 82.1792 158.909 82.2997 159.669 82.5408C160.428 82.7818 161.08 83.0477 161.62 83.3384V98.4367C161.184 98.7203 160.72 98.9897 160.223 99.245C159.143 99.8015 157.794 100.078 156.174 100.078V100.082Z" fill="white"/>
<path d="M210.118 77.1417C207.224 74.8481 203.128 73.6995 197.83 73.6995C194.885 73.6995 192.186 74.0504 189.735 74.7488C187.28 75.4507 185.268 76.3334 183.698 77.3934C182.716 78.0209 181.971 78.7334 181.452 79.531C180.934 80.3287 180.679 81.3319 180.679 82.5408V105.084C180.679 106.97 181.157 108.274 182.115 108.997C183.072 109.724 184.58 110.086 186.639 110.086C187.669 110.086 188.626 110.025 189.508 109.905C190.39 109.784 191.077 109.65 191.567 109.508V83.7709C192.402 83.3349 193.334 82.9626 194.364 82.6471C195.393 82.3316 196.523 82.1756 197.747 82.1756C199.464 82.1756 200.85 82.5975 201.904 83.4448C202.959 84.292 203.488 85.6072 203.488 87.3939V105.08C203.488 106.966 203.978 108.271 204.96 108.994C205.939 109.721 207.462 110.082 209.524 110.082C210.554 110.082 211.511 110.022 212.393 109.901C213.275 109.781 213.962 109.646 214.455 109.504V87.0359C214.455 82.7358 213.008 79.4389 210.115 77.1417H210.118Z" fill="white"/>
<path d="M249.269 76.851C246.227 74.7488 242.156 73.6995 237.052 73.6995C235.285 73.6995 233.457 73.8342 231.571 74.0965C229.681 74.3624 228.025 74.7842 226.603 75.3656C224.347 76.2838 223.22 77.7585 223.22 79.7863C223.22 80.6548 223.429 81.4914 223.846 82.2855C224.264 83.0832 224.768 83.6752 225.354 84.0616C226.776 83.4802 228.382 82.9733 230.174 82.5408C231.963 82.1047 233.791 81.8885 235.656 81.8885C238.06 81.8885 239.91 82.2501 241.213 82.9768C242.513 83.7 243.164 84.8876 243.164 86.5289V87.3975L233.377 88.4114C229.307 88.7978 226.24 89.8719 224.177 91.6373C222.115 93.4028 221.086 95.9268 221.086 99.2131C221.086 103.031 222.568 105.906 225.538 107.838C228.507 109.77 232.492 110.738 237.495 110.738C240.292 110.738 242.783 110.483 244.964 109.976C247.145 109.469 248.974 108.781 250.446 107.909C251.425 107.377 252.235 106.739 252.875 105.988C253.513 105.24 253.833 104.261 253.833 103.052V86.5998C253.833 82.204 252.31 78.9532 249.269 76.851ZM243.233 101.602C242.743 101.893 241.944 102.145 240.843 102.365C239.738 102.581 238.622 102.691 237.495 102.691C235.433 102.691 233.939 102.34 233.007 101.641C232.074 100.943 231.61 100.011 231.61 98.8515C231.61 97.6923 232.1 96.8202 233.082 96.2423C234.061 95.6609 235.386 95.3242 237.056 95.2285L243.236 94.6471V101.606L243.233 101.602Z" fill="white"/>
<path d="M291.655 77.1417C288.762 74.8481 284.665 73.6995 279.364 73.6995C276.419 73.6995 273.72 74.0504 271.268 74.7488C268.814 75.4507 266.802 76.3334 265.232 77.3934C264.25 78.0209 263.505 78.7334 262.986 79.531C262.468 80.3287 262.212 81.3319 262.212 82.5408V105.084C262.212 106.97 262.691 108.274 263.649 108.997C264.606 109.724 266.114 110.086 268.173 110.086C269.202 110.086 270.16 110.025 271.042 109.905C271.924 109.784 272.611 109.65 273.104 109.508V83.7709C273.939 83.3349 274.871 82.9626 275.901 82.6471C276.93 82.3316 278.061 82.1756 279.284 82.1756C281.001 82.1756 282.387 82.5975 283.442 83.4448C284.496 84.292 285.025 85.6072 285.025 87.3939V105.08C285.025 106.966 285.515 108.271 286.498 108.994C287.477 109.721 288.999 110.082 291.062 110.082C292.091 110.082 293.048 110.022 293.93 109.901C294.812 109.781 295.5 109.646 295.993 109.504V87.0359C295.993 82.7358 294.546 79.4389 291.652 77.1417H291.655Z" fill="white"/>
</g>
<g clip-path="url(#clip1_8_311)">
<path d="M35.8369 4.4861C32.1931 2.8287 27.9141 2 23.0066 2C21.1953 2 19.1944 2.09562 17.004 2.28686C14.8135 2.4781 12.7635 2.88891 10.8574 3.5122C10.0009 3.84864 9.30935 4.27007 8.78631 4.77296C8.25976 5.27939 8 6.01247 8 6.97221V41.4377C8 43.7432 9.23914 45.3545 11.7174 46.2682C13.5744 46.9411 15.649 47.3873 17.9342 47.6034C20.2229 47.8194 22.1501 47.9292 23.7227 47.9292C28.4862 47.9292 32.6425 47.0757 36.1949 45.3687C39.7438 43.6617 42.5065 41.1048 44.4863 37.6908C46.4626 34.2769 47.4525 29.9775 47.4525 24.7857C47.4525 19.594 46.4275 15.3903 44.3775 12.0223C42.3274 8.65794 39.4806 6.14705 35.8369 4.48965V4.4861ZM32.8355 35.4526C30.5714 37.8077 27.5595 38.987 23.7965 38.987C22.9856 38.987 22.129 38.9516 21.2234 38.8807C20.3177 38.8099 19.5068 38.7001 18.7942 38.5549V11.229C19.6051 11.1334 20.402 11.0484 21.1883 10.9776C21.9746 10.9068 22.796 10.8714 23.6525 10.8714C26.1308 10.8714 28.3107 11.3884 30.1923 12.4225C32.0738 13.4566 33.5516 15.0078 34.6223 17.0724C35.6929 19.1407 36.23 21.7826 36.23 25.0018C36.23 29.6163 35.0962 33.1011 32.8355 35.4562V35.4526Z" fill="white"/>
<path d="M79.9686 14.2924C77.0129 12.2029 73.0603 11.1547 68.1037 11.1547C66.3872 11.1547 64.6145 11.2857 62.7786 11.5513C60.9427 11.8169 59.335 12.2348 57.9554 12.8121C55.765 13.7258 54.6662 15.1919 54.6662 17.2106C54.6662 18.0747 54.8698 18.9069 55.2735 19.6967C55.6772 20.4899 56.1651 21.0778 56.7373 21.4638C58.1204 20.8866 59.679 20.3837 61.4201 19.9481C63.1577 19.516 64.9339 19.3 66.7453 19.3C69.0796 19.3 70.8769 19.6612 72.1406 20.3802C73.4008 21.1026 74.0362 22.2784 74.0362 23.9145V24.7787L64.5302 25.788C60.5741 26.174 57.5973 27.2435 55.5965 28.9965C53.5956 30.7531 52.5951 33.264 52.5951 36.5292C52.5951 40.3257 54.0344 43.1872 56.9199 45.1102C59.8018 47.0332 63.6737 47.9929 68.532 47.9929C71.249 47.9929 73.6641 47.7415 75.7843 47.235C77.9046 46.7286 79.6808 46.0451 81.1095 45.181C82.0608 44.6533 82.8471 44.0159 83.4684 43.2686C84.0862 42.5249 84.3987 41.551 84.3987 40.3469V23.9783C84.3987 19.6046 82.9208 16.3712 79.9686 14.2818V14.2924ZM74.1099 38.9162C73.6325 39.2066 72.8602 39.458 71.7861 39.674C70.7154 39.8901 69.6307 39.9998 68.5355 39.9998C66.5346 39.9998 65.0814 39.6528 64.1757 38.9551C63.27 38.261 62.8172 37.3331 62.8172 36.1786C62.8172 35.0241 63.2911 34.16 64.2459 33.5827C65.1972 33.0055 66.4855 32.669 68.1037 32.5734L74.1064 31.9961V38.9162H74.1099Z" fill="white"/>
<path d="M108.838 11.229C106.408 11.229 104.085 11.5052 101.87 12.0577C99.6545 12.6102 97.759 13.368 96.1863 14.3278C95.042 15.0502 94.1504 15.8789 93.508 16.8139C92.8656 17.7524 92.5426 18.8927 92.5426 20.2385V42.3726C92.5426 44.246 93.006 45.5457 93.9362 46.2646C94.8665 46.9871 96.3303 47.3448 98.3312 47.3448C99.3316 47.3448 100.262 47.2846 101.118 47.1642C101.975 47.0438 102.642 46.9127 103.119 46.7675V21.5382C104.12 20.9609 105.334 20.5041 106.763 20.1676C108.192 19.8312 109.62 19.6612 111.053 19.6612C111.863 19.6612 112.611 19.6966 113.303 19.771C113.994 19.8418 114.577 19.9268 115.054 20.0224C115.342 19.5408 115.591 18.9671 115.806 18.2907C116.02 17.6178 116.128 16.8989 116.128 16.1268C116.128 12.8581 113.699 11.2255 108.838 11.2255V11.229Z" fill="white"/>
<path d="M141.357 38.5549C140.785 38.7957 140.083 39.0011 139.247 39.1676C138.412 39.3376 137.64 39.419 136.924 39.419C135.351 39.419 134.136 39.1074 133.28 38.4805C132.423 37.8572 131.992 36.8727 131.992 35.5234V21.2478H139.423C140.518 21.2478 141.389 20.9113 142.031 20.2385C142.674 19.5656 142.996 18.5067 142.996 17.0653C142.996 16.2012 142.877 15.4079 142.638 14.6855C142.4 13.963 142.161 13.4105 141.922 13.0281H131.988V8.05231C131.988 6.1293 131.535 4.80834 130.63 4.08588C129.724 3.36342 128.246 3.00574 126.2 3.00574C125.245 3.00574 124.343 3.09073 123.483 3.25718C122.626 3.42717 121.959 3.58299 121.482 3.72465V36.2423C121.482 40.3752 122.591 43.3571 124.806 45.181C127.021 47.0084 130.131 47.9221 134.133 47.9221C137.278 47.9221 139.518 47.3908 140.852 46.3355C142.186 45.2801 142.853 43.9308 142.853 42.2982C142.853 41.4801 142.698 40.7612 142.389 40.1344C142.08 39.5111 141.733 38.9799 141.354 38.5478L141.357 38.5549Z" fill="white"/>
</g>
<defs>
<clipPath id="clip0_8_311">
<rect width="204" height="59" fill="white" transform="translate(92 65)"/>
</clipPath>
<clipPath id="clip1_8_311">
<rect width="135" height="46" fill="white" transform="translate(8 2)"/>
</clipPath>
</defs>
</svg>
