<svg width="129" height="51" viewBox="0 0 129 51" fill="none" xmlns="http://www.w3.org/2000/svg">
<g clip-path="url(#clip0_8_400)">
<path d="M67.3794 37.6511C66.9682 36.3149 66.5622 35.0367 66.1615 33.814C65.7595 32.5926 65.3889 31.5156 65.0497 30.5831C64.8886 30.1085 64.5049 29.7615 63.8986 29.541C63.2923 29.3217 62.6048 29.2108 61.8374 29.2108C61.3018 29.2108 60.7622 29.2766 60.2174 29.4082C59.6727 29.5397 59.2759 29.6855 59.0257 29.8428C58.8293 30.3174 58.5753 30.9765 58.2623 31.82C57.9493 32.6635 57.6101 33.587 57.2447 34.5892C56.8781 35.5913 56.5219 36.6064 56.1735 37.6356C55.8252 38.6636 55.5043 39.618 55.2097 40.4963C54.915 41.376 54.6872 42.1047 54.5274 42.6851C54.4384 42.9843 54.3624 43.2474 54.2995 43.4757C54.2367 43.704 54.2053 43.9246 54.2053 44.1348C54.2053 44.6456 54.4017 45.0312 54.7946 45.2956C55.1874 45.5587 55.7584 45.6916 56.5088 45.6916C56.8479 45.6916 57.1426 45.6606 57.3927 45.5987C57.6428 45.5368 57.8655 45.48 58.0619 45.4272C58.151 45.146 58.24 44.8468 58.3291 44.5308C58.4181 44.2148 58.5163 43.8807 58.6237 43.5286C58.7311 43.1778 58.8332 42.8167 58.9315 42.4478C58.9838 42.2492 59.0388 42.0557 59.0938 41.8674H64.4787L65.1296 44.109C65.2907 44.6365 65.5225 45.0325 65.8263 45.2956C66.1301 45.5587 66.6474 45.6916 67.3794 45.6916C67.8967 45.6916 68.3432 45.6168 68.7178 45.4671C69.0923 45.3175 69.3778 45.137 69.5742 44.9267C69.2887 43.9246 68.9535 42.7947 68.5698 41.5385C68.1861 40.2822 67.7893 38.9847 67.3781 37.6485L67.3794 37.6511ZM60.4453 36.7947C60.6954 36.0479 60.9403 35.3308 61.1813 34.6459C61.4222 33.9598 61.6318 33.3368 61.8099 32.7732H61.9709C62.132 33.2839 62.3101 33.8682 62.5065 34.5273C62.703 35.1863 62.9164 35.8854 63.1495 36.6232C63.3656 37.3119 63.5738 38.0251 63.7755 38.759H59.8062C60.0118 38.1077 60.224 37.4525 60.4453 36.7947Z" fill="white"/>
<path d="M82.2942 33.5898C81.8293 33.2906 81.1837 33.0146 80.3534 32.7592C79.5232 32.5051 78.6261 32.3774 77.6623 32.3774C76.3239 32.3774 75.1453 32.6199 74.1278 33.1023C73.1103 33.586 72.3206 34.2979 71.7588 35.2382C71.197 36.1784 70.9155 37.3444 70.9155 38.7322C70.9155 40.227 71.1879 41.4355 71.7326 42.3577C72.2774 43.2812 73.0003 43.9403 73.9013 44.3349C74.8022 44.7309 75.7792 44.9282 76.8334 44.9282C77.6008 44.9282 78.2529 44.8496 78.7885 44.6909C79.0923 44.6006 79.366 44.4987 79.6188 44.3865V45.2971C79.6188 46.1058 79.3241 46.6901 78.7348 47.0512C78.1455 47.4111 77.3519 47.5916 76.3514 47.5916C75.6194 47.5916 74.9227 47.4897 74.2627 47.2885C73.6027 47.086 73.0317 46.8448 72.5498 46.5637C72.335 46.7043 72.1517 46.9197 72.0011 47.2099C71.8492 47.5001 71.7732 47.8289 71.7732 48.1991C71.7732 48.902 72.077 49.4476 72.6834 49.8345C73.0579 50.0809 73.6066 50.2834 74.3295 50.4407C75.0524 50.5994 75.8774 50.6781 76.8059 50.6781C78.0368 50.6781 79.1487 50.4936 80.1387 50.1247C81.13 49.7559 81.9144 49.1845 82.4946 48.4106C83.0747 47.6368 83.3641 46.6346 83.3641 45.4042V35.4355C83.3641 34.9957 83.2659 34.6307 83.0695 34.3405C82.873 34.0503 82.6137 33.8001 82.2929 33.5885L82.2942 33.5898ZM77.5549 41.9759C76.7875 41.9759 76.1498 41.7425 75.6403 41.2769C75.1309 40.8113 74.8769 39.9626 74.8769 38.7322C74.8769 37.6075 75.1493 36.7807 75.694 36.2532C76.2388 35.7257 76.9394 35.4626 77.7959 35.4626C78.2058 35.4626 78.5502 35.5064 78.8265 35.5941C79.1028 35.6818 79.3398 35.7786 79.5363 35.8843V41.3775C79.3778 41.4807 79.2089 41.5787 79.0282 41.6716C78.6353 41.8741 78.1442 41.9747 77.5549 41.9747V41.9759Z" fill="white"/>
<path d="M97.1813 33.6298C96.1284 32.7953 94.6381 32.3774 92.7104 32.3774C91.6392 32.3774 90.6571 32.5051 89.7652 32.7592C88.8721 33.0146 88.1401 33.3357 87.5691 33.7214C87.2116 33.9497 86.9405 34.2089 86.752 34.4991C86.5634 34.7893 86.4704 35.1543 86.4704 35.5941V43.7958C86.4704 44.482 86.6446 44.9566 86.9929 45.2197C87.3413 45.4841 87.89 45.6157 88.639 45.6157C89.0136 45.6157 89.3619 45.5938 89.6827 45.5499C90.0036 45.5061 90.2537 45.457 90.4318 45.4055V36.0417C90.7356 35.883 91.0748 35.7476 91.4493 35.6328C91.8239 35.518 92.2351 35.4613 92.6803 35.4613C93.305 35.4613 93.8092 35.6148 94.1929 35.923C94.5766 36.2313 94.7691 36.7098 94.7691 37.3598V43.7945C94.7691 44.4807 94.9472 44.9553 95.3047 45.2184C95.6609 45.4828 96.2148 45.6144 96.9652 45.6144C97.3397 45.6144 97.6881 45.5925 98.0089 45.5486C98.3298 45.5048 98.5799 45.4558 98.7593 45.4042V37.2296C98.7593 35.6651 98.2328 34.4656 97.18 33.6298H97.1813Z" fill="white"/>
<path d="M111.425 33.5241C110.319 32.7592 108.838 32.3774 106.981 32.3774C106.338 32.3774 105.672 32.4265 104.986 32.5219C104.299 32.6186 103.696 32.7721 103.179 32.9836C102.358 33.3177 101.948 33.8542 101.948 34.592C101.948 34.908 102.024 35.2124 102.176 35.5013C102.328 35.7915 102.511 36.0069 102.725 36.1475C103.242 35.9359 103.826 35.7515 104.478 35.5941C105.129 35.4355 105.794 35.3568 106.473 35.3568C107.347 35.3568 108.02 35.4884 108.494 35.7528C108.967 36.0159 109.204 36.448 109.204 37.0451V37.3611L105.644 37.73C104.162 37.8706 103.047 38.2614 102.296 38.9037C101.546 39.546 101.171 40.4643 101.171 41.66C101.171 43.049 101.711 44.095 102.791 44.798C103.872 45.5009 105.321 45.853 107.142 45.853C108.159 45.853 109.065 45.7601 109.859 45.5757C110.653 45.3913 111.318 45.1411 111.854 44.8238C112.21 44.6303 112.504 44.3981 112.737 44.1247C112.969 43.8526 113.086 43.4966 113.086 43.0568V37.0709C113.086 35.4716 112.532 34.2889 111.425 33.5241ZM109.229 42.5293C109.051 42.635 108.76 42.7266 108.36 42.8066C107.958 42.8852 107.552 42.9252 107.142 42.9252C106.391 42.9252 105.848 42.7975 105.509 42.5434C105.17 42.2894 105.001 41.9501 105.001 41.5284C105.001 41.1066 105.179 40.7894 105.536 40.5791C105.892 40.3676 106.374 40.2451 106.982 40.2102L109.23 39.9987V42.5305L109.229 42.5293Z" fill="white"/>
<path d="M126.847 33.6298C125.794 32.7953 124.303 32.3774 122.374 32.3774C121.303 32.3774 120.321 32.5051 119.429 32.7592C118.536 33.0146 117.804 33.3357 117.233 33.7214C116.876 33.9497 116.605 34.2089 116.416 34.4991C116.227 34.7893 116.134 35.1543 116.134 35.5941V43.7958C116.134 44.482 116.309 44.9566 116.657 45.2197C117.005 45.4841 117.554 45.6157 118.303 45.6157C118.678 45.6157 119.026 45.5938 119.347 45.5499C119.668 45.5061 119.918 45.457 120.097 45.4055V36.0417C120.401 35.883 120.74 35.7476 121.115 35.6328C121.489 35.518 121.9 35.4613 122.346 35.4613C122.97 35.4613 123.475 35.6148 123.858 35.923C124.242 36.2313 124.434 36.7098 124.434 37.3598V43.7945C124.434 44.4807 124.613 44.9553 124.97 45.2184C125.326 45.4828 125.88 45.6144 126.631 45.6144C127.005 45.6144 127.353 45.5925 127.674 45.5486C127.995 45.5048 128.245 45.4558 128.425 45.4042V37.2296C128.425 35.6651 127.898 34.4656 126.845 33.6298H126.847Z" fill="white"/>
</g>
<path d="M86.8294 7.07693C86.8294 7.07693 86.1355 4.61066 87.2347 2.68871C88.3338 0.766751 89.9352 -0.384088 90.8104 0.11746C91.6855 0.619009 91.5043 2.58373 90.4052 4.50568C89.306 6.42764 86.8294 7.07693 86.8294 7.07693Z" fill="#D4E79E"/>
<g clip-path="url(#clip1_8_400)">
<path d="M45.3642 1.63217C44.0385 1.02916 42.4816 0.727661 40.6962 0.727661C40.0372 0.727661 39.3092 0.76245 38.5123 0.832028C37.7153 0.901605 36.9695 1.05107 36.276 1.27784C35.9644 1.40024 35.7128 1.55357 35.5225 1.73654C35.3309 1.92079 35.2364 2.1875 35.2364 2.53668V15.0761C35.2364 15.9149 35.6872 16.5012 36.5889 16.8336C37.2645 17.0784 38.0193 17.2407 38.8507 17.3193C39.6834 17.3979 40.3846 17.4379 40.9567 17.4379C42.6898 17.4379 44.202 17.1274 45.4944 16.5063C46.7856 15.8853 47.7907 14.955 48.511 13.7129C49.2301 12.4708 49.5902 10.9066 49.5902 9.0177C49.5902 7.1288 49.2173 5.59938 48.4715 4.37404C47.7256 3.14999 46.6898 2.23646 45.3642 1.63346V1.63217ZM44.2722 12.8986C43.4484 13.7554 42.3526 14.1845 40.9835 14.1845C40.6885 14.1845 40.3769 14.1716 40.0474 14.1458C39.7179 14.1201 39.4229 14.0801 39.1636 14.0273V4.08542C39.4586 4.05064 39.7485 4.01971 40.0346 3.99394C40.3207 3.96817 40.6196 3.95529 40.9312 3.95529C41.8328 3.95529 42.626 4.14341 43.3105 4.51964C43.9951 4.89587 44.5327 5.46023 44.9223 6.21141C45.3118 6.96388 45.5072 7.92508 45.5072 9.0963C45.5072 10.7752 45.0947 12.043 44.2722 12.8999V12.8986Z" fill="white"/>
<path d="M61.4204 5.19994C60.3451 4.43974 58.907 4.05835 57.1037 4.05835C56.4792 4.05835 55.8342 4.10602 55.1662 4.20266C54.4983 4.29929 53.9134 4.45133 53.4114 4.66136C52.6145 4.99378 52.2148 5.52721 52.2148 6.26164C52.2148 6.57603 52.2888 6.87882 52.4357 7.16615C52.5826 7.45477 52.7601 7.66865 52.9683 7.8091C53.4715 7.59908 54.0385 7.41611 54.672 7.25763C55.3042 7.10044 55.9504 7.02184 56.6094 7.02184C57.4587 7.02184 58.1126 7.15326 58.5724 7.41482C59.0309 7.67767 59.2621 8.10545 59.2621 8.70072V9.01511L55.8035 9.38232C54.3642 9.52277 53.2812 9.91189 52.5532 10.5497C51.8252 11.1888 51.4612 12.1023 51.4612 13.2903C51.4612 14.6715 51.9849 15.7126 53.0347 16.4122C54.0832 17.1119 55.4919 17.4611 57.2595 17.4611C58.248 17.4611 59.1267 17.3696 59.8981 17.1853C60.6695 17.0011 61.3157 16.7524 61.8355 16.438C62.1816 16.246 62.4677 16.0141 62.6937 15.7422C62.9185 15.4717 63.0322 15.1173 63.0322 14.6792V8.72391C63.0322 7.13265 62.4945 5.95627 61.4204 5.19607V5.19994ZM59.2889 14.1587C59.1152 14.2644 58.8342 14.3558 58.4434 14.4344C58.0539 14.513 57.6592 14.553 57.2608 14.553C56.5328 14.553 56.0041 14.4267 55.6745 14.1729C55.345 13.9203 55.1803 13.5828 55.1803 13.1627C55.1803 12.7427 55.3527 12.4283 55.7001 12.2183C56.0462 12.0082 56.5149 11.8858 57.1037 11.851L59.2876 11.641V14.1587H59.2889Z" fill="white"/>
<path d="M71.9237 4.08539C71.0399 4.08539 70.1944 4.1859 69.3886 4.3869C68.5827 4.5879 67.893 4.86363 67.3209 5.21281C66.9045 5.47566 66.5801 5.77716 66.3464 6.11732C66.1127 6.45876 65.9952 6.87365 65.9952 7.36327V15.4162C65.9952 16.0978 66.1638 16.5707 66.5022 16.8323C66.8406 17.0951 67.3732 17.2253 68.1012 17.2253C68.4652 17.2253 68.8036 17.2033 69.1152 17.1595C69.4269 17.1157 69.6695 17.0681 69.8432 17.0152V7.83614C70.2072 7.62612 70.6491 7.45991 71.1689 7.3375C71.6887 7.2151 72.2085 7.15325 72.7296 7.15325C73.0246 7.15325 73.2966 7.16614 73.5482 7.19319C73.7998 7.21896 74.0118 7.24989 74.1855 7.28468C74.2902 7.10944 74.3809 6.90071 74.4588 6.65461C74.5367 6.4098 74.5763 6.14824 74.5763 5.86735C74.5763 4.67809 73.6925 4.08411 71.9237 4.08411V4.08539Z" fill="white"/>
<path d="M83.7552 14.0273C83.547 14.1149 83.2916 14.1897 82.9876 14.2502C82.6837 14.3121 82.4027 14.3417 82.1422 14.3417C81.57 14.3417 81.1281 14.2283 80.8165 14.0003C80.5049 13.7735 80.3478 13.4153 80.3478 12.9244V7.73056H83.0515C83.45 7.73056 83.7667 7.60815 84.0004 7.36334C84.2341 7.11853 84.3516 6.73328 84.3516 6.20887C84.3516 5.89448 84.3082 5.60586 84.2213 5.34301C84.1345 5.08017 84.0477 4.87916 83.9608 4.74001H80.3465V2.9297C80.3465 2.23006 80.1817 1.74946 79.8522 1.48661C79.5227 1.22376 78.985 1.09363 78.2405 1.09363C77.8931 1.09363 77.5649 1.12455 77.252 1.18511C76.9403 1.24696 76.6977 1.30365 76.524 1.35519V13.186C76.524 14.6896 76.9276 15.7745 77.7334 16.4381C78.5393 17.1029 79.6709 17.4353 81.1268 17.4353C82.2711 17.4353 83.086 17.2421 83.5713 16.8581C84.0566 16.4741 84.2993 15.9832 84.2993 15.3892C84.2993 15.0916 84.2431 14.83 84.1307 14.602C84.0183 14.3752 83.8918 14.1819 83.7539 14.0248L83.7552 14.0273Z" fill="white"/>
</g>
<path d="M104.782 23.8766L27.8982 24.8658V27.9035C27.8982 27.9273 27.8932 27.9499 27.8857 27.9725C27.6311 28.6541 27.2963 29.4563 26.8938 30.2157C26.7972 30.3977 26.5226 30.3274 26.5226 30.1228L26.5226 24.8833L22.969 24.9285C23.1483 24.5645 23.2486 24.3423 23.2624 24.3109L23.4919 23.7975L23.2624 23.2854C23.2511 23.2603 23.1771 23.0958 23.0455 22.826L26.5226 22.8699V20.141C26.5226 20.1246 26.5251 20.1083 26.5302 20.0933C26.7646 19.3978 27.132 18.4024 27.611 17.4334C27.6825 17.2915 27.8982 17.343 27.8982 17.5024V22.8875L104.782 23.8766Z" fill="white"/>
<path d="M2.50479 16.4492C1.32609 17.9128 0.492227 19.6652 0.126079 21.5807C-0.000567594 20.6543 -0.0582484 19.502 0.079684 18.1802C0.345517 15.6395 1.72735 16.0186 2.50479 16.4492Z" fill="white"/>
<path d="M2.50479 31.1459C1.72735 31.5764 0.345517 31.9555 0.079684 29.4149C-0.0582484 28.0931 -0.000567594 26.942 0.126079 26.0156C0.492227 27.9312 1.32609 29.6822 2.50479 31.1459Z" fill="white"/>
<path d="M22.1151 23.7951C22.0862 23.7662 21.8467 23.5264 21.4317 23.1674C19.922 21.8645 16.0887 18.9949 11.5984 18.9949C6.31806 18.9949 1.94685 20.7711 1.19324 23.0858C1.55813 17.6267 6.09862 13.3124 11.6435 13.3124C16.3307 13.3124 20.2981 20.195 21.6348 22.8072C21.9358 23.3946 22.1038 23.7662 22.1151 23.7951Z" fill="#D4E79E"/>
<path d="M22.1163 23.8C22.1025 23.8314 21.9057 24.2683 21.5533 24.9474C20.1414 27.6688 16.2379 34.2827 11.6435 34.2827C6.09862 34.2827 1.56064 29.9709 1.19324 24.5118C1.9481 26.8265 6.31931 28.6014 11.5984 28.6014C16.0887 28.6014 19.922 25.7306 21.4317 24.4277C21.853 24.0637 22.0938 23.8226 22.1163 23.8Z" fill="#D4E79E"/>
<path d="M25.9496 33.5571C25.7878 33.7517 25.675 33.9689 25.675 34.1973C25.675 35.0446 26.3621 35.7338 27.2098 35.7338C28.0575 35.7338 28.7434 35.0459 28.7434 34.1973C28.7434 33.9714 28.6343 33.7567 28.4738 33.5634C28.1164 33.1316 27.897 32.6031 27.897 32.042V31.0529C27.897 30.842 27.6098 30.7792 27.5208 30.97C26.9089 32.283 26.4136 33.0224 26.0411 33.4379C26.0123 33.4781 25.9809 33.5182 25.9483 33.5571H25.9496Z" fill="white"/>
<path d="M25.675 13.3976C25.675 13.6261 25.7866 13.8433 25.9496 14.0378C26.3095 14.4684 26.5226 15.0019 26.5226 15.563V17.0567C26.5226 17.2212 26.7484 17.2676 26.8136 17.1157C27.3553 15.8429 27.8192 14.9956 28.2004 14.4307C28.2004 14.4307 28.2004 14.4295 28.2017 14.4282C28.2769 14.2914 28.3684 14.1596 28.47 14.0378C28.633 13.8433 28.7434 13.6261 28.7434 13.3976C28.7434 12.5491 28.0562 11.8612 27.2098 11.8612C26.3634 11.8612 25.675 12.5491 25.675 13.3976Z" fill="white"/>
<defs>
<clipPath id="clip0_8_400">
<rect width="74.6455" height="21.7909" fill="white" transform="translate(53.7818 29.2091)"/>
</clipPath>
<clipPath id="clip1_8_400">
<rect width="49.1165" height="16.736" fill="white" transform="translate(35.2364 0.727661)"/>
</clipPath>
</defs>
</svg>
