<svg width="100" height="100" viewBox="0 0 100 100" fill="none" xmlns="http://www.w3.org/2000/svg">
<circle cx="50" cy="50" r="50" fill="white"/>
<g clip-path="url(#clip0_43_22)">
<path d="M59.6463 10.4425C59.4312 10.4271 59.2264 10.4219 59.0317 10.4425C58.8371 10.4631 58.6835 10.4734 58.5811 10.4837L58.3711 13.066C58.3199 13.6833 58.2738 14.3263 58.2277 15.0054C58.1867 15.5969 58.1765 16.2245 58.1816 16.8727L58.1099 16.883C58.0382 16.6412 57.9563 16.3994 57.8743 16.1679C57.7924 15.9313 57.7002 15.6947 57.608 15.4581C57.5158 15.2163 57.4185 14.9848 57.3264 14.7636L55.7439 11.0598C55.58 10.6637 55.3547 10.3962 55.0627 10.2625C54.7708 10.1236 54.4584 10.0413 54.1204 10.0155C53.8131 9.98983 53.5264 10.0155 53.26 10.0824C52.9937 10.1544 52.7889 10.2728 52.6557 10.4374L52.4099 13.4673L52.0105 18.4005C51.9797 18.8017 52.0463 19.0847 52.2102 19.2544C52.3741 19.4242 52.6813 19.5271 53.132 19.5631C53.3369 19.5785 53.5366 19.5837 53.7414 19.5734C53.9412 19.5631 54.0897 19.5528 54.1819 19.5374L54.4226 16.5692C54.4533 16.1885 54.484 15.7976 54.5096 15.4015C54.5352 15.0054 54.5557 14.5835 54.5711 14.1514C54.5813 13.8222 54.5813 13.4878 54.5813 13.1535L54.6838 13.138C54.7657 13.385 54.8528 13.6216 54.9347 13.8634C55.0167 14.1 55.1037 14.3366 55.1908 14.5733C55.2778 14.8099 55.37 15.0414 55.4673 15.278L57.0344 18.9664C57.1983 19.3727 57.4237 19.6454 57.7156 19.7791C58.0075 19.918 58.325 20.0003 58.6733 20.0261C59.001 20.0518 59.2878 20.0363 59.5336 19.9798C59.7795 19.9232 59.9741 19.8357 60.1175 19.7225L60.3121 17.3099L60.773 11.6051C60.8037 11.2141 60.7371 10.9364 60.563 10.7615C60.3889 10.5865 60.0867 10.4837 59.6463 10.4477V10.4425Z" fill="#922D50"/>
<path d="M69.9245 17.6957C69.8426 17.0218 69.5968 16.4251 69.1768 15.9055C68.7569 15.386 68.1884 14.9744 67.4714 14.6761C66.7596 14.3829 66.0733 14.2748 65.4024 14.352C64.7366 14.4292 64.1426 14.6709 63.6151 15.0876C63.0927 15.4991 62.6779 16.0856 62.3706 16.8366C62.0633 17.5877 61.9507 18.3027 62.0224 18.9714C62.0992 19.6402 62.3501 20.2317 62.7752 20.7462C63.2003 21.2606 63.7738 21.667 64.4959 21.9653C65.2232 22.2637 65.9197 22.3769 66.5803 22.3048C67.241 22.2328 67.8299 21.9859 68.3523 21.5589C68.8747 21.132 69.2844 20.5507 69.5916 19.8099C69.8887 19.0795 70.0013 18.3747 69.9194 17.7008L69.9245 17.6957ZM67.4356 18.9148C67.1795 19.5424 66.8517 19.9745 66.4574 20.2163C66.0631 20.4581 65.638 20.4787 65.1822 20.2935C64.7264 20.1083 64.4396 19.7894 64.3218 19.347C64.204 18.9046 64.2757 18.3644 64.5369 17.7266C64.793 17.099 65.1207 16.6669 65.5202 16.4302C65.9197 16.1936 66.3447 16.1679 66.7903 16.3531C67.2461 16.5383 67.5278 16.8623 67.6455 17.315C67.7582 17.7677 67.6916 18.3027 67.4407 18.92L67.4356 18.9148Z" fill="#922D50"/>
<path d="M78.3593 23.0455C78.6205 22.7163 78.7178 22.4282 78.6563 22.1865C78.5898 21.9447 78.39 21.6875 78.0418 21.4097C77.8728 21.2759 77.7089 21.1628 77.545 21.0702C77.3811 20.9776 77.248 20.9159 77.1507 20.8747L75.0561 23.5188L73.6989 25.2369C73.5965 25.2215 73.4531 25.1752 73.279 25.098C73.1049 25.0209 72.9051 24.8974 72.69 24.7277C72.3469 24.4499 72.1421 24.1618 72.0806 23.848C72.0191 23.5342 72.1369 23.1947 72.4288 22.8243L73.1049 21.9653L74.6156 20.0568C74.8768 19.7276 74.9741 19.4395 74.9127 19.1977C74.8512 18.9559 74.6464 18.6987 74.2981 18.4209C74.1291 18.2872 73.9652 18.174 73.8014 18.0814C73.6375 17.9888 73.5094 17.9271 73.4173 17.8962L71.3226 20.5403L71.0819 20.849L70.8925 21.0856L70.6364 21.4097C70.1857 21.9807 69.9348 22.5414 69.8887 23.0867C69.8426 23.632 69.9655 24.1618 70.2625 24.6762C70.5596 25.1855 70.9898 25.669 71.5582 26.1269C72.014 26.4921 72.4647 26.775 72.9154 26.9808C73.3609 27.1866 73.7757 27.31 74.1598 27.3512C74.4108 27.382 74.631 27.3563 74.8154 27.2792C74.9997 27.202 75.1687 27.0682 75.3224 26.8728L76.4235 25.4839L78.3644 23.0301L78.3593 23.0455Z" fill="#922D50"/>
<path d="M82.4102 31.4562C82.9223 31.2916 83.3679 31.1322 83.7418 30.9881C84.1156 30.8389 84.3768 30.7103 84.5253 30.6023C84.7916 30.4068 84.9145 30.1856 84.9043 29.9336C84.894 29.6815 84.7916 29.4243 84.6073 29.1671C84.3717 28.843 84.0951 28.6064 83.7827 28.4521C82.9377 28.8276 82.062 29.1928 81.1504 29.5529C80.2388 29.9078 79.3733 30.2319 78.559 30.5251L78.5232 30.4737C78.6307 30.3297 78.769 30.1548 78.9226 29.949C79.0814 29.7432 79.2453 29.522 79.4296 29.2854C79.6089 29.0436 79.7932 28.807 79.9776 28.5704L81.5447 26.5642C81.7905 26.2709 81.9032 26.0034 81.8878 25.7565C81.8725 25.5096 81.7752 25.2627 81.5857 25.0003C81.4423 24.7997 81.2682 24.6454 81.0633 24.5322C80.8636 24.419 80.669 24.347 80.4795 24.3162C80.2337 24.6094 79.9622 24.9643 79.655 25.381C79.3477 25.7977 79.0353 26.2349 78.7126 26.703C78.39 27.166 78.0827 27.6238 77.7908 28.0662C77.4989 28.5086 77.2428 28.915 77.0226 29.2751C76.8024 29.6404 76.6436 29.9284 76.5361 30.1496C76.4388 30.3502 76.4285 30.5766 76.5002 30.8338C76.5719 31.091 76.7153 31.3636 76.9202 31.6466C77.0943 31.8883 77.2838 32.089 77.4784 32.2484C77.6781 32.4079 77.842 32.5108 77.9752 32.5519C78.3183 32.5005 78.7434 32.4233 79.2401 32.3153C79.7369 32.2073 80.2593 32.0787 80.8124 31.9295C81.3655 31.7803 81.893 31.6208 82.4102 31.4562Z" fill="#922D50"/>
<path d="M82.8865 40.8597C83.0555 40.7928 83.204 40.6848 83.3218 40.5356C83.4396 40.3864 83.5113 40.2218 83.542 40.0418C83.3321 39.8669 83.1016 39.6302 82.8507 39.3164C82.5997 39.0078 82.3949 38.6477 82.2412 38.2465C82.0466 37.7475 81.9954 37.2742 82.0773 36.8215C82.1439 36.4614 82.3488 36.1528 82.6714 35.8956L84.679 39.4502C84.8275 39.7228 85.0118 39.9132 85.2269 40.016C85.442 40.1189 85.6981 40.1138 85.9951 40.0006C86.5892 39.7691 87.0552 39.4296 87.3984 38.9769C87.7415 38.5242 87.9463 37.9995 88.018 37.4028C88.0897 36.8061 87.9976 36.1785 87.7415 35.5149C87.5674 35.0622 87.3267 34.6559 87.0245 34.2958C86.7224 33.9357 86.3587 33.6425 85.9388 33.4264C85.5188 33.2103 85.0477 33.0869 84.5253 33.0663C84.0029 33.0457 83.4345 33.1538 82.8199 33.3904C81.9903 33.7145 81.3604 34.1517 80.9353 34.7021C80.5102 35.2526 80.2746 35.8802 80.2234 36.5746C80.1722 37.2691 80.29 37.9893 80.5768 38.73C80.7714 39.2393 80.9967 39.6714 81.2426 40.0366C81.4935 40.3967 81.7547 40.6539 82.0312 40.8031C82.3078 40.9523 82.5895 40.9729 82.8763 40.8648L82.8865 40.8597ZM85.3242 35.232C85.7288 35.4069 86.0105 35.7104 86.1795 36.1425C86.3383 36.554 86.3434 36.909 86.1949 37.2125C86.0463 37.5109 85.8415 37.7269 85.5803 37.8452L84.0593 35.2114C84.5356 35.0725 84.9606 35.0725 85.3242 35.232Z" fill="#922D50"/>
<path d="M87.4855 42.2898C87.6391 42.5727 87.7825 42.8968 87.9105 43.262C88.0386 43.6272 88.1256 44.0028 88.1666 44.3937C88.2178 44.8927 88.182 45.2888 88.059 45.5769C87.9361 45.8649 87.7005 46.0244 87.3523 46.0604L87.1679 46.081L86.7429 44.0645C86.5739 43.226 86.2768 42.6087 85.862 42.2177C85.4472 41.8268 84.889 41.6673 84.1976 41.7393C83.3935 41.8268 82.82 42.1972 82.4768 42.8608C82.1337 43.5244 82.0159 44.3783 82.1235 45.4174C82.1849 45.9987 82.2925 46.5131 82.4461 46.9606C82.5997 47.403 82.7841 47.7683 82.9992 48.0563C83.1324 48.2467 83.286 48.401 83.455 48.5193C83.624 48.6376 83.8391 48.6788 84.0952 48.6531L87.5623 48.2878C88.4892 48.1901 89.1396 47.7991 89.5186 47.1201C89.8976 46.4411 90.0307 45.5666 89.9181 44.5017C89.8771 44.1314 89.8105 43.7558 89.7132 43.3649C89.6159 42.9791 89.493 42.6396 89.3394 42.3566C89.0987 41.904 88.7607 41.7033 88.3356 41.7496C88.1512 41.7702 87.9822 41.8319 87.8235 41.9348C87.6647 42.0377 87.552 42.156 87.4803 42.2898H87.4855ZM84.1771 46.4102C84.1054 46.3125 84.0337 46.153 83.962 45.9267C83.8903 45.7003 83.8442 45.4688 83.8186 45.2374C83.7725 44.8052 83.8186 44.4863 83.9415 44.2754C84.0695 44.0645 84.2539 43.9462 84.4997 43.9205C84.7456 43.8947 84.9402 43.977 85.0836 44.1674C85.227 44.3577 85.3294 44.6303 85.3857 44.975L85.6418 46.2508L84.1771 46.4051V46.4102Z" fill="#922D50"/>
<path d="M89.9744 51.1377L86.6558 50.5821L85.565 50.4021C84.848 50.2838 84.2385 50.3352 83.7418 50.5616C83.245 50.7879 82.8404 51.1531 82.5383 51.6573C82.2361 52.1665 82.0261 52.7787 81.9083 53.4989C81.811 54.075 81.7854 54.6151 81.8213 55.1038C81.8571 55.5925 81.9544 56.0195 82.103 56.3796C82.2003 56.6162 82.3232 56.7963 82.4819 56.9197C82.6356 57.0432 82.8353 57.1255 83.0811 57.1666L84.8224 57.4599L87.9003 57.9743C88.3151 58.0411 88.6121 57.9897 88.7914 57.8199C88.9706 57.6502 89.0986 57.3415 89.1703 56.9043C89.2062 56.6934 89.2216 56.4928 89.2216 56.3024C89.2216 56.1121 89.2164 55.968 89.2011 55.86L85.2013 55.1913L83.7315 54.9444C83.6957 54.8466 83.6701 54.6974 83.6496 54.5071C83.6291 54.3168 83.6393 54.0853 83.6854 53.8075C83.7571 53.3703 83.9159 53.0513 84.1566 52.8456C84.3973 52.6398 84.7507 52.5781 85.2167 52.6552L86.2922 52.8353L88.6889 53.2365C89.1038 53.3034 89.4008 53.2519 89.58 53.0822C89.7593 52.9073 89.8873 52.6038 89.959 52.1665C89.9949 51.9556 90.0102 51.755 90.0102 51.5647C90.0102 51.3795 90.0051 51.2354 89.9898 51.1377H89.9744Z" fill="#922D50"/>
</g>
<g clip-path="url(#clip1_43_22)">
<path d="M40.3537 91.5575C40.5688 91.5729 40.7736 91.5781 40.9683 91.5575C41.1629 91.5369 41.3165 91.5266 41.4189 91.5163L41.6289 88.934C41.6801 88.3167 41.7262 87.6737 41.7723 86.9946C41.8133 86.4031 41.8235 85.7755 41.8184 85.1273L41.8901 85.117C41.9618 85.3588 42.0437 85.6006 42.1257 85.8321C42.2076 86.0687 42.2998 86.3053 42.392 86.5419C42.4842 86.7837 42.5815 87.0152 42.6736 87.2364L44.2561 90.9402C44.42 91.3363 44.6453 91.6038 44.9373 91.7375C45.2292 91.8764 45.5416 91.9587 45.8796 91.9845C46.1869 92.0102 46.4736 91.9845 46.74 91.9176C47.0063 91.8456 47.2111 91.7272 47.3443 91.5626L47.5901 88.5327L47.9895 83.5995C48.0203 83.1983 47.9537 82.9153 47.7898 82.7456C47.6259 82.5758 47.3187 82.4729 46.868 82.4369C46.6631 82.4215 46.4634 82.4163 46.2586 82.4266C46.0588 82.4369 45.9103 82.4472 45.8181 82.4626L45.5774 85.4308C45.5467 85.8115 45.516 86.2024 45.4904 86.5985C45.4647 86.9946 45.4443 87.4165 45.4289 87.8486C45.4187 88.1778 45.4187 88.5122 45.4187 88.8465L45.3162 88.862C45.2343 88.615 45.1472 88.3784 45.0653 88.1366C44.9833 87.9 44.8963 87.6634 44.8092 87.4267C44.7222 87.1901 44.63 86.9586 44.5327 86.722L42.9656 83.0336C42.8017 82.6273 42.5763 82.3546 42.2844 82.2209C41.9925 82.082 41.675 81.9997 41.3267 81.9739C40.999 81.9482 40.7122 81.9637 40.4664 82.0202C40.2205 82.0768 40.0259 82.1643 39.8825 82.2775L39.6879 84.6901L39.227 90.3949C39.1963 90.7859 39.2629 91.0636 39.437 91.2386C39.6111 91.4135 39.9133 91.5163 40.3537 91.5523L40.3537 91.5575Z" fill="#922D50"/>
<path d="M30.0755 84.3043C30.1574 84.9782 30.4032 85.5749 30.8232 86.0945C31.2431 86.614 31.8116 87.0256 32.5286 87.3239C33.2404 87.6171 33.9267 87.7252 34.5976 87.648C35.2634 87.5708 35.8574 87.3291 36.3849 86.9124C36.9073 86.5009 37.3221 85.9144 37.6294 85.1634C37.9367 84.4123 38.0493 83.6973 37.9776 83.0286C37.9008 82.3598 37.6499 81.7683 37.2248 81.2538C36.7997 80.7394 36.2262 80.333 35.5041 80.0347C34.7768 79.7363 34.0803 79.6231 33.4197 79.6952C32.759 79.7672 32.1701 80.0141 31.6477 80.4411C31.1253 80.868 30.7156 81.4493 30.4084 82.1901C30.1113 82.9205 29.9987 83.6253 30.0806 84.2992L30.0755 84.3043ZM32.5644 83.0852C32.8205 82.4576 33.1483 82.0255 33.5426 81.7837C33.9369 81.5419 34.362 81.5213 34.8178 81.7065C35.2736 81.8917 35.5604 82.2106 35.6782 82.653C35.796 83.0954 35.7243 83.6356 35.4631 84.2734C35.207 84.901 34.8793 85.3331 34.4798 85.5698C34.0803 85.8064 33.6553 85.8321 33.2097 85.6469C32.7539 85.4617 32.4722 85.1377 32.3545 84.685C32.2418 84.2323 32.3084 83.6973 32.5593 83.08L32.5644 83.0852Z" fill="#922D50"/>
<path d="M21.6407 78.9545C21.3795 79.2837 21.2822 79.5718 21.3437 79.8135C21.4102 80.0553 21.61 80.3125 21.9582 80.5903C22.1272 80.7241 22.2911 80.8372 22.455 80.9298C22.6189 81.0224 22.752 81.0841 22.8493 81.1253L24.9439 78.4812L26.3011 76.7631C26.4035 76.7785 26.5469 76.8248 26.721 76.902C26.8951 76.9791 27.0949 77.1026 27.31 77.2723C27.6531 77.5501 27.8579 77.8382 27.9194 78.152C27.9809 78.4658 27.8631 78.8053 27.5712 79.1757L26.8951 80.0347L25.3844 81.9432C25.1232 82.2724 25.0259 82.5605 25.0873 82.8023C25.1488 83.0441 25.3536 83.3013 25.7019 83.5791C25.8709 83.7128 26.0348 83.826 26.1986 83.9186C26.3625 84.0112 26.4906 84.0729 26.5827 84.1038L28.6774 81.4597L28.9181 81.151L29.1075 80.9144L29.3636 80.5903C29.8143 80.0193 30.0652 79.4586 30.1113 78.9133C30.1574 78.368 30.0345 77.8382 29.7375 77.3238C29.4404 76.8145 29.0102 76.331 28.4418 75.8731C27.986 75.5079 27.5353 75.225 27.0846 75.0192C26.6391 74.8134 26.2242 74.69 25.8402 74.6488C25.5892 74.618 25.369 74.6437 25.1846 74.7208C25.0003 74.798 24.8313 74.9318 24.6776 75.1272L23.5765 76.5161L21.6356 78.9699L21.6407 78.9545Z" fill="#922D50"/>
<path d="M17.5898 70.5438C17.0777 70.7084 16.6321 70.8678 16.2582 71.0119C15.8844 71.1611 15.6232 71.2897 15.4747 71.3977C15.2084 71.5932 15.0855 71.8144 15.0957 72.0664C15.106 72.3185 15.2084 72.5757 15.3927 72.8329C15.6283 73.157 15.9049 73.3936 16.2173 73.5479C17.0623 73.1724 17.938 72.8072 18.8496 72.4471C19.7612 72.0922 20.6267 71.7681 21.441 71.4749L21.4768 71.5263C21.3693 71.6703 21.231 71.8452 21.0774 72.051C20.9186 72.2568 20.7547 72.478 20.5704 72.7146C20.3911 72.9564 20.2068 73.193 20.0224 73.4296L18.4553 75.4358C18.2095 75.7291 18.0968 75.9966 18.1122 76.2435C18.1275 76.4904 18.2248 76.7373 18.4143 76.9997C18.5577 77.2003 18.7318 77.3546 18.9367 77.4678C19.1364 77.581 19.331 77.653 19.5205 77.6838C19.7663 77.3906 20.0378 77.0357 20.345 76.619C20.6523 76.2023 20.9647 75.7651 21.2874 75.297C21.61 74.834 21.9173 74.3762 22.2092 73.9338C22.5011 73.4914 22.7572 73.085 22.9774 72.7249C23.1976 72.3596 23.3564 72.0716 23.4639 71.8504C23.5612 71.6498 23.5715 71.4234 23.4998 71.1662C23.4281 70.909 23.2847 70.6364 23.0798 70.3534C22.9057 70.1117 22.7162 69.911 22.5216 69.7516C22.3219 69.5921 22.158 69.4892 22.0248 69.4481C21.6817 69.4995 21.2566 69.5767 20.7599 69.6847C20.2631 69.7927 19.7407 69.9213 19.1876 70.0705C18.6345 70.2197 18.107 70.3792 17.5898 70.5438Z" fill="#922D50"/>
<path d="M17.1135 61.1403C16.9445 61.2072 16.796 61.3152 16.6782 61.4644C16.5604 61.6136 16.4887 61.7782 16.458 61.9582C16.6679 62.1331 16.8984 62.3698 17.1493 62.6836C17.4003 62.9922 17.6051 63.3523 17.7588 63.7535C17.9534 64.2525 18.0046 64.7258 17.9227 65.1785C17.8561 65.5386 17.6512 65.8472 17.3286 66.1044L15.321 62.5498C15.1725 62.2772 14.9882 62.0868 14.7731 61.984C14.558 61.8811 14.3019 61.8862 14.0049 61.9994C13.4108 62.2309 12.9448 62.5704 12.6016 63.0231C12.2585 63.4758 12.0537 64.0005 11.982 64.5972C11.9103 65.1939 12.0024 65.8215 12.2585 66.4851C12.4326 66.9378 12.6733 67.3441 12.9755 67.7042C13.2776 68.0643 13.6413 68.3575 14.0612 68.5736C14.4812 68.7897 14.9523 68.9131 15.4747 68.9337C15.9971 68.9543 16.5655 68.8462 17.1801 68.6096C18.0097 68.2855 18.6396 67.8483 19.0647 67.2979C19.4898 66.7474 19.7254 66.1198 19.7766 65.4254C19.8278 64.7309 19.71 64.0107 19.4232 63.27C19.2286 62.7607 19.0033 62.3286 18.7574 61.9634C18.5065 61.6033 18.2453 61.3461 17.9688 61.1969C17.6922 61.0477 17.4105 61.0271 17.1237 61.1352L17.1135 61.1403ZM14.6758 66.768C14.2712 66.5931 13.9895 66.2896 13.8205 65.8575C13.6617 65.446 13.6566 65.091 13.8051 64.7875C13.9537 64.4891 14.1585 64.2731 14.4197 64.1548L15.9407 66.7886C15.4644 66.9275 15.0394 66.9275 14.6758 66.768Z" fill="#922D50"/>
<path d="M12.5145 59.7102C12.3609 59.4273 12.2175 59.1032 12.0895 58.738C11.9614 58.3728 11.8744 57.9972 11.8334 57.6063C11.7822 57.1073 11.818 56.7112 11.941 56.4231C12.0639 56.1351 12.2995 55.9756 12.6477 55.9396L12.8321 55.919L13.2571 57.9355C13.4261 58.774 13.7232 59.3913 14.138 59.7823C14.5528 60.1732 15.111 60.3327 15.8024 60.2607C16.6065 60.1732 17.18 59.8028 17.5232 59.1392C17.8663 58.4756 17.9841 57.6217 17.8765 56.5826C17.8151 56.0013 17.7075 55.4869 17.5539 55.0394C17.4003 54.597 17.2159 54.2317 17.0008 53.9437C16.8676 53.7533 16.714 53.599 16.545 53.4807C16.376 53.3624 16.1609 53.3212 15.9048 53.3469L12.4377 53.7122C11.5108 53.8099 10.8604 54.2009 10.4814 54.8799C10.1024 55.5589 9.96926 56.4334 10.0819 57.4983C10.1229 57.8686 10.1895 58.2442 10.2868 58.6351C10.3841 59.0209 10.507 59.3604 10.6606 59.6434C10.9013 60.096 11.2393 60.2967 11.6644 60.2504C11.8488 60.2298 12.0178 60.1681 12.1765 60.0652C12.3353 59.9623 12.448 59.844 12.5197 59.7102L12.5145 59.7102ZM15.8229 55.5898C15.8946 55.6875 15.9663 55.847 16.038 56.0733C16.1097 56.2997 16.1558 56.5312 16.1814 56.7626C16.2275 57.1948 16.1814 57.5137 16.0585 57.7246C15.9305 57.9355 15.7461 58.0538 15.5003 58.0795C15.2544 58.1053 15.0598 58.023 14.9164 57.8326C14.773 57.6423 14.6706 57.3697 14.6143 57.025L14.3582 55.7492L15.8229 55.5949L15.8229 55.5898Z" fill="#922D50"/>
<path d="M10.0256 50.8623L13.3442 51.4179L14.435 51.5979C15.152 51.7162 15.7615 51.6648 16.2582 51.4384C16.755 51.2121 17.1596 50.8469 17.4617 50.3427C17.7639 49.8335 17.9739 49.2213 18.0917 48.5011C18.189 47.925 18.2146 47.3849 18.1787 46.8962C18.1429 46.4075 18.0456 45.9805 17.897 45.6204C17.7997 45.3838 17.6768 45.2037 17.5181 45.0803C17.3644 44.9568 17.1647 44.8745 16.9189 44.8334L15.1776 44.5401L12.0997 44.0257C11.6849 43.9589 11.3879 44.0103 11.2086 44.1801C11.0294 44.3498 10.9014 44.6585 10.8297 45.0957C10.7938 45.3066 10.7784 45.5072 10.7784 45.6976C10.7784 45.8879 10.7836 46.032 10.7989 46.14L14.7987 46.8087L16.2685 47.0556C16.3043 47.1534 16.3299 47.3026 16.3504 47.4929C16.3709 47.6832 16.3607 47.9147 16.3146 48.1925C16.2429 48.6297 16.0841 48.9487 15.8434 49.1544C15.6027 49.3602 15.2493 49.4219 14.7833 49.3448L13.7078 49.1647L11.3111 48.7635C10.8962 48.6966 10.5992 48.7481 10.42 48.9178C10.2407 49.0927 10.1127 49.3962 10.041 49.8335C10.0051 50.0444 9.98976 50.245 9.98976 50.4353C9.98976 50.6205 9.99489 50.7646 10.0102 50.8623L10.0256 50.8623Z" fill="#922D50"/>
</g>
<circle cx="24" cy="22" r="3" fill="#D4E79E"/>
<circle cx="70" cy="81" r="3" fill="#D4E79E"/>
<defs>
<clipPath id="clip0_43_22">
<rect width="38" height="48" fill="white" transform="translate(52 10)"/>
</clipPath>
<clipPath id="clip1_43_22">
<rect width="38" height="48" fill="white" transform="translate(48 92) rotate(180)"/>
</clipPath>
</defs>
</svg>
