<svg width="81" height="81" viewBox="0 0 81 81" fill="none" xmlns="http://www.w3.org/2000/svg">
<path d="M61.607 16.7635C57.4536 13.4187 52.4809 11.0524 47.0451 10.0134C49.6739 9.65396 52.9439 9.49027 56.6949 9.88169C63.9046 10.6361 62.8288 14.5574 61.607 16.7635Z" fill="white"/>
<path d="M19.9017 16.7635C18.6799 14.5574 17.6042 10.6361 24.8139 9.88169C28.5648 9.49027 31.8313 9.65396 34.4601 10.0134C29.0243 11.0524 24.0552 13.4187 19.9017 16.7635Z" fill="white"/>
<path d="M40.7615 72.4126C40.8434 72.3308 41.5238 71.6511 42.5426 70.4733C46.24 66.1891 54.383 55.3112 54.383 42.5688C54.383 27.5846 49.3427 15.1802 42.7741 13.0416C58.2658 14.0771 70.5088 26.9619 70.5088 42.6969C70.5088 55.998 50.9777 67.2566 43.5649 71.0498C41.8978 71.9038 40.8434 72.3806 40.7615 72.4126Z" fill="#D4E79E"/>
<path d="M40.7473 72.4162C40.6582 72.377 39.4186 71.8184 37.4915 70.8185C29.7688 66.8118 11 55.7346 11 42.6969C11 26.9619 23.2359 14.0842 38.7275 13.0416C32.159 15.1837 27.1221 27.5881 27.1221 42.5688C27.1221 55.3112 35.2687 66.1891 38.9662 70.4733C39.9992 71.6689 40.6831 72.3521 40.7473 72.4162Z" fill="#D4E79E"/>
</svg>
